Release Group: IMAGiNE
Release Name: Alice_In_Wonderland_2010_TS_XViD_-_IMAGiNE
Release Date: March 13, 2010
Filename: Alice In Wonderland 2010 TS XViD – IMAGiNE
Video: 704×368 (1.913:1) | 1863kbps | 23.976fps
Audio: English | 128kbps | MP3
Subtitles: None
Runtime: 1hr 40min
RT Critics: 5.8/10 (208 reviews)
Starring: Johnny Depp, Anne Hathaway, Helena Bonham-Carter, Crispin Glover

   1.
      Format                           : MPEG-4 Visual
   2.
      Format profile                   : Advanced Simple@L5
   3.
      Format settings, BVOP            : Yes
   4.
      Format settings, QPel            : No
   5.
      Format settings, GMC             : No warppoints
   6.
      Format settings, Matrix          : Default (MPEG)
   7.
      Muxing mode                      : Packed bitstream
   8.
      Codec ID                         : XVID
   9.
      Codec ID/Hint                    : XviD
  10.
      Duration                         : 1h 40mn
  11.
      Bit rate                         : 1 863 Kbps
  12.
      Width                            : 704 pixels
  13.
      Height                           : 368 pixels
  14.
      Display aspect ratio             : 1.913
  15.
      Frame rate                       : 23.976 fps
  16.
      Resolution                       : 24 bits
  17.
      Colorimetry                      : 4:2:0
  18.
      Scan type                        : Progressive
  19.
      Bits/(Pixel*Frame)               : 0.300
  20.
      Stream size                      : 1.31 GiB (93%)
  21.
      Writing library                  : XviD 1.2.1 (UTC 2008-12-04)
  22.
       
  23.
      Audio
  24.
      ID                               : 1
  25.
      Format                           : MPEG Audio
  26.
      Format version                   : Version 1
  27.
      Format profile                   : Layer 3
  28.
      Codec ID                         : 55
  29.
      Codec ID/Hint                    : MP3
  30.
      Duration                         : 1h 40mn
  31.
      Bit rate mode                    : Constant
  32.
      Bit rate                         : 128 Kbps
  33.
      Channel(s)                       : 2 channels
  34.
      Sampling rate                    : 48.0 KHz
  35.
      Resolution                       : 16 bits
  36.
      Stream size                      : 91.8 MiB (6%)
  37.
      Alignment                        : Split accross interleaves
  38.
      Interleave, duration             : 42 ms (1.00 video frame)
  39.
      Interleave, preload duration     : 500 ms

